<?xml version="1.0" encoding="utf-8"?>
<svg viewBox="13 3.5 32 54" xmlns="http://www.w3.org/2000/svg">
  <path style="fill:#E7ECED;" d="M38,33.5h-4.5c-0.828,0-1.5-0.672-1.5-1.5v0c0-0.828,0.672-1.5,1.5-1.5H38V33.5z" transform="matrix(1, 0, 0, 1, 0, -4.440892098500626e-16)"/>
  <path style="fill:#6C797A;" d="M36,28.943V30.5h2v3h-2v1.557c0,0.797,0.646,1.443,1.443,1.443h2.114&#10;&#9;c0.797,0,1.443-0.646,1.443-1.443v-6.114c0-0.797-0.646-1.443-1.443-1.443h-2.114C36.646,27.5,36,28.146,36,28.943z" transform="matrix(1, 0, 0, 1, 0, -4.440892098500626e-16)"/>
</svg>