<svg width="41" height="41" viewBox="0 0 41 41" fill="none" xmlns="http://www.w3.org/2000/svg">
<path d="M24.0103 23.6265L20.4061 27.2292L13.7718 20.5951L17.3745 16.991C17.9774 16.3881 17.9774 15.4114 17.3745 14.8085C16.7717 14.2057 15.7949 14.2057 15.192 14.8085L11.5893 18.4126L9.447 16.2719C8.86855 15.6934 7.84296 15.6934 7.26449 16.2719L3.95663 19.5804C-0.487948 24.0243 -0.820313 31.0365 2.94111 35.8772L0.452138 38.3661C-0.150713 38.969 -0.150713 39.9457 0.452138 40.5486C0.753563 40.85 1.14759 41 1.54375 41C1.93775 41 2.33392 40.85 2.63535 40.5486L5.12285 38.0597C7.2802 39.7412 9.91119 40.6605 12.6895 40.6605C15.9895 40.6605 19.0899 39.3766 21.4223 37.0428L24.7302 33.7343C25.333 33.1314 25.333 32.1547 24.7302 31.5518L22.5894 29.4111L26.1936 25.8084C26.7964 25.2056 26.7964 24.2288 26.1936 23.626C25.5915 23.0238 24.6132 23.0238 24.0103 23.6267L24.0103 23.6265ZM19.239 34.8616C17.4886 36.6106 15.1624 37.5745 12.688 37.5745C10.2148 37.5745 7.88806 36.6106 6.13896 34.8616C2.52759 31.2496 2.52759 25.3732 6.13896 21.7634L8.3551 19.5466L19.3121 30.5004C19.3128 30.5011 19.3143 30.5032 19.3143 30.5047C19.3164 30.5054 19.3186 30.5054 19.3186 30.5075L21.4566 32.6448L19.239 34.8616ZM40.5479 2.63459C41.1507 2.03247 41.1507 1.05499 40.5479 0.452133C39.945 -0.15072 38.9682 -0.150702 38.3653 0.452133L35.8764 2.94178C31.0355 -0.817397 24.0222 -0.486512 19.5791 3.95656L16.2705 7.26653C15.9691 7.56795 15.8191 7.96196 15.8191 8.3581C15.8191 8.7521 15.9691 9.14826 16.2705 9.44968L31.5523 24.7289C31.8537 25.0303 32.2492 25.1803 32.6439 25.1803H32.6446C33.0401 25.1803 33.4348 25.0303 33.7363 24.7289L37.0448 21.4204C39.3773 19.088 40.6626 15.9884 40.6626 12.6893C40.6626 9.91119 39.7419 7.27954 38.0603 5.1228L40.5479 2.63459ZM34.8624 19.2379L32.6455 21.4547L19.544 8.35649L21.7609 6.13821C25.3722 2.52895 31.2481 2.52895 34.8609 6.14036C36.6099 7.88932 37.5738 10.2154 37.5738 12.6892C37.5746 15.1623 36.6114 17.489 34.8624 19.238V19.2379Z" fill="#120E28"/>
</svg>
